<svg xmlns="http://www.w3.org/2000/svg" viewBox="0 0 720 420" role="img" aria-labelledby="t d"><title id="t">BRIDGE-bench contamination audit</title><desc id="d">Twenty-four benchmark prompts are shown as a grid, with thirteen marked as leaking bug information, alongside the evaluation validity result.</desc><rect width="720" height="420" fill="#f3f1eb"/><text x="54" y="54" font-family="ui-monospace,monospace" font-size="13" fill="#66685f">BENCHMARK CONTAMINATION AUDIT</text><text x="54" y="102" font-family="Georgia,serif" font-size="54" fill="#11120f">13 / 24</text><text x="54" y="130" font-family="ui-sans-serif,system-ui" font-size="16" fill="#4d5047">prompts contained bug information</text><g transform="translate(400 52)"><g fill="#dce7e1" stroke="#9faea5"><rect x="0" y="0" width="36" height="36"/><rect x="46" y="0" width="36" height="36"/><rect x="92" y="0" width="36" height="36"/><rect x="138" y="0" width="36" height="36"/><rect x="184" y="0" width="36" height="36"/><rect x="230" y="0" width="36" height="36"/><rect x="0" y="46" width="36" height="36"/><rect x="46" y="46" width="36" height="36"/><rect x="92" y="46" width="36" height="36"/><rect x="138" y="46" width="36" height="36"/><rect x="184" y="46" width="36" height="36"/><rect x="230" y="46" width="36" height="36"/><rect x="0" y="92" width="36" height="36"/></g><g fill="#e7e3d8" stroke="#cfc8bb"><rect x="46" y="92" width="36" height="36"/><rect x="92" y="92" width="36" height="36"/><rect x="138" y="92" width="36" height="36"/><rect x="184" y="92" width="36" height="36"/><rect x="230" y="92" width="36" height="36"/><rect x="0" y="138" width="36" height="36"/><rect x="46" y="138" width="36" height="36"/><rect x="92" y="138" width="36" height="36"/><rect x="138" y="138" width="36" height="36"/><rect x="184" y="138" width="36" height="36"/><rect x="230" y="138" width="36" height="36"/></g></g><g transform="translate(54 214)"><line x1="0" y1="0" x2="612" y2="0" stroke="#cfc8bb"/><text x="0" y="36" font-family="ui-monospace,monospace" font-size="12" fill="#66685f">SAME FINDINGS · DIFFERENT GRADER</text><text x="0" y="84" font-family="Georgia,serif" font-size="38" fill="#11120f">37.1%</text><text x="142" y="84" font-family="ui-sans-serif,system-ui" font-size="15" fill="#66685f">LLM judge</text><path d="M260 70H378" stroke="#2e5b4b" stroke-width="3"/><path d="M368 62l12 8-12 8" fill="none" stroke="#2e5b4b" stroke-width="3"/><text x="408" y="84" font-family="Georgia,serif" font-size="38" fill="#11120f">51.6%</text><text x="540" y="84" font-family="ui-sans-serif,system-ui" font-size="15" fill="#66685f">gold labels</text><text x="0" y="130" font-family="ui-sans-serif,system-ui" font-size="15" fill="#4d5047">Changing only the evaluator moved the score by 14.5 points.</text><text x="0" y="166" font-family="ui-sans-serif,system-ui" font-size="15" fill="#24473b">Next measurement: raw → stripped → anonymized, paired by contract.</text></g></svg>